<?xml version="1.0" standalone="no"?><!DOCTYPE svg PUBLIC "-//W3C//DTD SVG 1.1//EN" "http://www.w3.org/Graphics/SVG/1.1/DTD/svg11.dtd"><svg t="1730619279802" class="icon" viewBox="0 0 1024 1024" version="1.1" xmlns="http://www.w3.org/2000/svg" p-id="4362" xmlns:xlink="http://www.w3.org/1999/xlink" width="200" height="200"><path d="M952.14117 923.480932v19.613477H12.341825V0H491.224469v78.453906H90.795731V864.640503H873.687263V567.143289h78.453907z" fill="#666666" p-id="4363"></path><path d="M890.526659 819.704802V698.538873h-82.614416v121.165929H686.746314v82.614415h121.165929v121.165929h82.614416v-121.165929h121.165929v-82.614415h-121.165929zM436.135117 543.686797c8.854259-9.128848 17.708518-13.692658 30.989293-22.822731 8.853033-9.128848 17.707292-13.692658 26.560325-22.822732 8.854259-4.563811 17.708518-13.692658 26.561551-22.821506 8.854259-9.128848 13.280775-18.257695 17.708517-27.386543 4.425291-9.130073 8.853033-22.822732 8.853033-41.080426 0-13.692658-4.426517-27.386543-8.853033-36.516616-4.427742-13.692658-13.280775-22.821506-22.135034-27.385317-8.854259-9.130073-17.707292-13.693884-30.989293-18.258921-13.27955-4.563811-22.133808-9.128848-35.414584-9.128847-17.707292 0-30.988067 4.565037-44.268842 9.128847-13.280775 4.565037-26.561551 13.692658-35.414584 27.386543-8.854259 9.128848-17.708518 22.822732-22.135034 36.516616-4.426517 13.692658-4.426517 18.257695-4.426517 36.51539h57.549618v-13.692659c0-9.130073 4.426517-13.693884 8.853033-22.822731 4.427742-4.565037 8.854259-13.693884 13.280776-18.258921 4.427742-4.563811 13.280775-4.563811 22.135034-4.563811 13.280775 0 22.133808 4.563811 30.989293 13.692658 8.853033 9.130073 13.27955 18.258921 13.279549 31.95158 0 9.128848 0 18.257695-4.426516 22.822731-4.427742 13.692658-13.280775 18.257695-17.708518 22.822732l-17.707292 18.257695c-8.853033 4.563811-17.707292 9.128848-22.133808 13.692658-13.280775 9.128848-26.561551 13.693884-35.414584 22.822732-13.282001 9.128848-22.135034 18.257695-30.989293 31.951579-8.854259 9.128848-13.280775 22.822732-17.707292 36.51539-4.427742 13.692658-8.854259 27.386543-8.854258 45.645464h212.491179v-54.774311H418.427825c4.426517-13.692658 8.854259-22.822732 17.707292-27.386543zM296.732332 621.282614V315.463158h-57.550844c0 9.128848-4.425291 22.822732-8.853033 31.951579l-17.708517 18.257695c-8.853033 4.563811-17.707292 9.128848-26.560325 9.128847-8.854259 0-13.280775 4.565037-22.135034 0v50.209275h75.256909v191.707023h57.549618v4.565037zM739.330045 621.282614c13.280775-4.565037 26.561551-9.128848 35.414584-18.257695 8.854259-9.128848 17.708518-18.257695 22.135034-31.951579 4.426517-13.692658 4.426517-27.386543 4.426516-45.644238 0-18.257695 0-27.387768-8.853033-41.080426-8.854259-13.692658-22.135034-18.257695-39.842326-22.822732 13.280775-4.563811 22.135034-13.692658 30.989293-22.822732 8.853033-9.128848 8.853033-22.821506 8.853033-36.51539 0-13.692658-4.426517-27.386543-8.854258-36.51539-4.426517-9.128848-13.280775-18.257695-22.133809-27.386543-8.854259-9.128848-17.708518-13.692658-30.989293-18.257695C717.196237 315.463158 708.341978 315.463158 695.061202 315.463158s-26.561551 4.565037-39.842326 9.128847c-13.280775 4.565037-22.135034 13.692658-30.989293 22.822732-8.853033 9.128848-17.706066 18.257695-22.133808 31.951579-4.426517 13.692658-8.853033 31.950353-8.853033 45.644238h57.549618c0-13.692658 4.426517-31.951579 8.853033-41.080427 8.854259-9.128848 17.708518-13.692658 35.414584-13.692658 8.855485 0 22.135034 4.563811 26.562776 9.128847 8.853033 4.563811 13.280775 18.257695 13.280776 27.385317 0 9.130073 0 13.693884-4.427743 18.258921l-13.280775 13.692658c-4.425291 4.565037-13.27955 4.565037-22.133809 4.565037h-22.135034v41.080427h26.561551c8.854259 0 13.280775 0 22.135034 4.56381 8.853033 4.565037 13.280775 9.128848 17.707292 13.693885 4.426517 4.565037 4.426517 13.692658 4.426517 27.386542 0 13.692658-4.425291 27.386543-13.280776 36.516616-8.853033 9.128848-22.133808 13.692658-35.414584 13.692658-8.854259 0-17.707292 0-22.135034-4.56381-4.426517-4.565037-13.280775-9.128848-17.707292-13.693885-4.426517-4.565037-8.854259-13.692658-8.854258-18.257695-4.425291-9.128848-4.425291-18.257695-4.425291-27.386542H584.388483c0 18.257695 0 36.51539 8.854259 50.209274 4.425291 13.692658 13.280775 22.821506 22.133808 31.950353 8.854259 9.128848 22.135034 18.257695 35.414584 22.822732 13.282001 4.563811 30.989293 4.563811 44.270068 4.563811 17.707292-4.563811 30.989293 0 44.268843-4.563811z" fill="#666666" p-id="4364"></path></svg>